<?xml version="1.0" encoding="UTF-8" standalone="no"?>
<svg
   clip-rule="evenodd"
   fill-rule="evenodd"
   stroke-linejoin="round"
   stroke-miterlimit="2"
   viewBox="0 0 120 63"
   version="1.1"
   id="svg5"
   sodipodi:docname="tbscg-logo-white.svg"
   inkscape:version="1.4 (86a8ad7, 2024-10-11)"
   xmlns:inkscape="http://www.inkscape.org/namespaces/inkscape"
   xmlns:sodipodi="http://sodipodi.sourceforge.net/DTD/sodipodi-0.dtd"
   xmlns="http://www.w3.org/2000/svg"
   xmlns:svg="http://www.w3.org/2000/svg">
  <defs
     id="defs5" />
  <sodipodi:namedview
     id="namedview5"
     pagecolor="#ffffff"
     bordercolor="#000000"
     borderopacity="0.25"
     inkscape:showpageshadow="2"
     inkscape:pageopacity="0.0"
     inkscape:pagecheckerboard="0"
     inkscape:deskcolor="#d1d1d1"
     inkscape:zoom="4"
     inkscape:cx="31.25"
     inkscape:cy="36.25"
     inkscape:window-width="1728"
     inkscape:window-height="1010"
     inkscape:window-x="2553"
     inkscape:window-y="175"
     inkscape:window-maximized="1"
     inkscape:current-layer="svg5" />
  <linearGradient
     id="a"
     gradientTransform="matrix(23.2658 .00240209 -.00240209 23.2658 33.8512 -.001409)"
     gradientUnits="userSpaceOnUse"
     x1="0"
     x2="1"
     y1="0"
     y2="0">
    <stop
       offset="0"
       stop-color="#ff8204"
       id="stop1" />
    <stop
       offset="1"
       stop-color="#fddb32"
       id="stop2" />
  </linearGradient>
  <path
     d="m0 0h120v63h-120z"
     fill="none"
     id="path2" />
  <g
     fill-rule="nonzero"
     id="g5">
    <path
       d="m118.126 14.932h.003c1.026 0 1.871.845 1.871 1.871 0 1.027-.845 1.872-1.871 1.872s-1.871-.844-1.872-1.869c0-.002 0-.004 0-.005 0-1.025.844-1.869 1.869-1.869zm0 3.433h.005c.858 0 1.564-.706 1.564-1.564s-.706-1.565-1.564-1.565-1.564.707-1.564 1.565v.005c.001.855.704 1.558 1.559 1.559m-.077-1.339h-.298v.807h-.418v-2.06h.798c.546 0 .788.242.788.607.015.279-.171.533-.442.602l.483.849h-.483zm-.298-.861v.484h.38c.278 0 .365-.092.365-.242s-.082-.242-.365-.242z"
       fill="#373938"
       id="path3" />
    <path
       d="m 113.3,16.47 c -0.793,-0.393 -1.667,-0.594 -2.551,-0.588 -1.31,-0.042 -2.599,0.346 -3.668,1.105 -0.715,0.519 -1.344,1.147 -1.864,1.862 -0.834,-0.675 -1.731,-1.268 -2.679,-1.77 -1.58,-0.834 -3.346,-1.25 -5.131,-1.209 -1.349,0.013 -2.688,0.233 -3.97,0.653 -1.359,0.428 -2.636,1.082 -3.777,1.934 -1.141,0.855 -2.105,1.923 -2.841,3.143 -0.53,0.915 -0.892,1.918 -1.069,2.96 -0.098,0.551 -0.279,1.084 -0.537,1.581 -0.362,0.822 -0.857,1.578 -1.465,2.239 -0.757,0.805 -1.672,1.444 -2.689,1.877 -1.391,0.565 -2.886,0.83 -4.386,0.778 -1.381,0.063 -2.751,-0.273 -3.946,-0.967 -1.011,-0.66 -1.828,-1.578 -2.365,-2.66 -0.621,-1.277 -1.03,-2.648 -1.209,-4.057 -0.235,-1.674 -0.35,-3.363 -0.343,-5.053 -0.072,-2.509 0.187,-5.016 0.771,-7.457 0.344,-1.453 1,-2.814 1.922,-3.988 0.638,-0.775 1.502,-1.331 2.471,-1.591 0.908,-0.217 1.836,-0.33 2.769,-0.336 1.086,-0.024 2.16,0.226 3.124,0.726 0.729,0.313 1.205,1.032 1.209,1.825 -0.034,0.663 -0.175,1.316 -0.416,1.935 -0.282,0.738 -0.44,1.517 -0.469,2.306 -0.042,0.87 0.454,1.682 1.248,2.041 0.705,0.344 1.479,0.523 2.263,0.522 1.019,0.06 2.02,-0.299 2.771,-0.991 0.661,-0.667 1.02,-1.578 0.991,-2.517 C 87.5,9.49 87.124,8.229 86.393,7.175 85.7,6.215 84.808,5.414 83.779,4.827 82.711,4.222 81.559,3.779 80.36,3.512 77.191,2.75 73.861,3.004 70.843,4.237 c -1.802,0.732 -3.445,1.808 -4.836,3.168 -1.379,1.365 -2.486,2.981 -3.261,4.761 -0.445,1.019 -0.769,2.087 -0.968,3.182 -0.02,0.134 -0.089,0.257 -0.193,0.345 -0.213,0.142 -0.49,0.15 -0.711,0.02 -0.063,-0.034 -0.138,-0.075 -0.242,-0.121 -0.35,-0.152 -0.742,-0.305 -1.172,-0.455 -0.431,-0.15 -0.943,-0.302 -1.524,-0.454 -0.774,-0.177 -1.568,-0.258 -2.362,-0.242 -1.297,-0.011 -2.586,0.214 -3.803,0.662 -2.24,0.817 -4.057,2.503 -5.039,4.674 -0.497,1.095 -0.75,2.285 -0.74,3.487 -0.041,1.235 0.178,2.465 0.643,3.61 0.387,0.886 0.954,1.683 1.666,2.338 0.643,0.586 1.378,1.063 2.176,1.412 0.745,0.319 1.451,0.59 2.087,0.803 l 4.932,1.707 c 0.989,0.333 1.914,0.831 2.737,1.473 0.791,0.79 1.179,1.899 1.055,3.01 0.133,1.364 -0.385,2.715 -1.398,3.639 -0.939,0.749 -2.109,1.149 -3.31,1.132 -1.342,0.037 -2.676,-0.228 -3.903,-0.774 -1.032,-0.486 -1.959,-1.168 -2.73,-2.01 -0.733,-0.807 -1.336,-1.725 -1.784,-2.72 -0.441,-0.974 -0.813,-1.979 -1.115,-3.005 l -0.099,-0.344 h -0.024 c -0.077,-0.217 -0.158,-0.433 -0.242,-0.648 -1.399,-3.443 -4.028,-6.248 -7.375,-7.865 -1.657,-0.803 -3.477,-1.217 -5.319,-1.209 -2.123,-0.093 -4.216,0.546 -5.924,1.811 -0.953,0.747 -1.763,1.662 -2.389,2.698 V 2.209 H 14.399 v 1.837 h 4.867 c 0,0 0.046,41.729 0,42.556 -0.224,1.062 -0.737,2.042 -1.482,2.831 -0.784,0.958 -1.972,1.495 -3.209,1.451 -0.394,-0.003 -0.786,-0.061 -1.165,-0.172 -0.393,-0.124 -0.744,-0.352 -1.018,-0.66 -0.38,-0.441 -0.655,-0.961 -0.808,-1.523 -0.242,-0.891 -0.352,-1.812 -0.326,-2.735 V 21.627 H 16.27 V 19.792 H 11.258 V 12.717 H 4.867 v 7.072 H 0 v 1.838 h 4.867 v 23.597 c -0.118,2.038 0.609,4.037 2.01,5.522 1.972,1.528 4.461,2.234 6.942,1.971 1.155,0.034 2.305,-0.187 3.365,-0.648 0.786,-0.363 1.494,-0.874 2.085,-1.506 v 2.152 h 6.262 v -3.893 c 0.397,0.804 0.922,1.539 1.555,2.176 0.753,0.758 1.633,1.379 2.599,1.835 1.206,0.547 2.521,0.812 3.845,0.776 1.899,0.004 3.775,-0.423 5.486,-1.247 1.705,-0.819 3.243,-1.948 4.536,-3.33 1.308,-1.399 2.356,-3.021 3.095,-4.788 0.174,-0.413 0.411,-1.138 0.462,-1.259 0.058,-0.147 0.155,-0.276 0.28,-0.373 0.14,-0.099 0.278,-0.137 0.726,-0.137 0.465,0.01 0.925,0.098 1.361,0.258 0.551,0.192 1.156,0.394 1.813,0.605 0.668,0.215 1.403,0.42 2.177,0.609 0.876,0.205 1.774,0.305 2.674,0.297 1.519,0.025 3.029,-0.244 4.446,-0.793 1.224,-0.482 2.347,-1.19 3.311,-2.086 0.902,-0.854 1.609,-1.893 2.074,-3.044 0.458,-1.12 0.696,-2.318 0.699,-3.528 0.071,-1.891 -0.675,-3.724 -2.048,-5.027 -1.459,-1.307 -3.178,-2.29 -5.044,-2.885 l -4.621,-1.518 c -1.443,-0.405 -2.815,-1.032 -4.067,-1.857 -0.837,-0.628 -1.3,-1.64 -1.228,-2.684 -0.052,-1.265 0.506,-2.481 1.499,-3.267 1.283,-0.909 2.841,-1.352 4.411,-1.252 0.875,-0.021 1.744,0.158 2.541,0.522 0.701,0.34 1.315,0.836 1.794,1.451 0.522,0.679 0.958,1.421 1.298,2.207 0.365,0.831 0.688,1.679 0.968,2.542 0.196,0.698 0.457,1.377 0.778,2.028 0.857,1.773 2.101,3.331 3.642,4.558 1.459,1.142 3.122,1.996 4.901,2.517 1.664,0.502 3.39,0.764 5.128,0.779 1.843,0.066 3.676,-0.287 5.363,-1.03 1.242,-0.58 2.364,-1.389 3.305,-2.384 0.281,-0.313 0.544,-0.641 0.789,-0.982 0.505,1.623 1.496,3.052 2.838,4.094 -0.367,0.183 -0.761,0.389 -1.18,0.619 -0.76,0.42 -1.456,0.948 -2.067,1.566 -0.661,0.666 -1.213,1.431 -1.637,2.268 -0.476,0.983 -0.711,2.066 -0.684,3.158 -0.183,1.945 0.65,3.851 2.2,5.039 1.399,0.84 2.988,1.312 4.618,1.371 -0.361,0.177 -0.72,0.369 -1.078,0.576 -0.904,0.513 -1.735,1.145 -2.471,1.878 -0.736,0.738 -1.344,1.592 -1.799,2.53 -0.48,1.001 -0.723,2.1 -0.711,3.211 -0.011,1.179 0.309,2.339 0.924,3.346 0.635,1.011 1.489,1.866 2.497,2.505 1.147,0.719 2.396,1.261 3.705,1.608 1.516,0.403 3.079,0.6 4.647,0.585 1.863,-0.001 3.713,-0.32 5.469,-0.943 1.726,-0.6 3.329,-1.507 4.732,-2.677 1.357,-1.137 2.481,-2.527 3.308,-4.093 0.846,-1.631 1.278,-3.444 1.257,-5.281 0.214,-2.654 -0.823,-5.26 -2.802,-7.041 -2.118,-1.568 -4.716,-2.355 -7.348,-2.225 h -9.981 c -0.504,0.002 -1.007,-0.037 -1.504,-0.118 -0.422,-0.066 -0.83,-0.2 -1.209,-0.394 -0.332,-0.177 -0.607,-0.445 -0.793,-0.771 -0.223,-0.409 -0.331,-0.87 -0.312,-1.335 -0.01,-0.547 0.121,-1.088 0.382,-1.569 0.258,-0.466 0.597,-0.883 1.001,-1.231 0.41,-0.351 0.864,-0.647 1.351,-0.88 0.448,-0.215 0.871,-0.414 1.275,-0.597 0.587,0.28 1.385,0.604 2.372,0.967 1.293,0.442 2.654,0.655 4.021,0.628 1.477,0 2.946,-0.231 4.352,-0.686 1.353,-0.423 2.622,-1.077 3.75,-1.935 1.045,-0.8 1.932,-1.788 2.614,-2.913 0.675,-1.124 1.026,-2.413 1.016,-3.724 0.045,-1.405 -0.283,-2.797 -0.951,-4.033 -0.376,-0.667 -0.795,-1.309 -1.255,-1.922 0.258,-0.312 0.545,-0.597 0.859,-0.851 0.273,-0.253 0.624,-0.406 0.996,-0.433 0.22,-0.019 0.433,0.091 0.544,0.283 0.203,0.328 0.399,0.674 0.58,1.035 0.201,0.403 0.438,0.787 0.709,1.148 0.401,0.486 1.016,0.746 1.644,0.696 0.652,-0.014 1.28,-0.25 1.78,-0.669 0.619,-0.508 0.957,-1.283 0.909,-2.082 0.14,-1.096 -0.388,-2.174 -1.34,-2.735 m -20.7,14.938 c -0.489,-0.738 -0.818,-1.569 -0.967,-2.442 -0.193,-1.098 -0.285,-2.212 -0.276,-3.327 -0.193,-2.162 0.348,-4.326 1.533,-6.144 1.142,-1.262 2.808,-1.925 4.505,-1.792 1.067,-0.054 2.129,0.185 3.071,0.689 0.713,0.426 1.288,1.05 1.656,1.794 0.387,0.811 0.64,1.679 0.747,2.571 0.123,0.955 0.185,1.917 0.186,2.88 0.145,2.07 -0.309,4.14 -1.308,5.96 -1.005,1.321 -2.633,2.023 -4.284,1.847 -1.036,0.037 -2.068,-0.143 -3.03,-0.527 -0.739,-0.321 -1.372,-0.845 -1.826,-1.511 m -66.865,4.188 c 0.047,-1.054 0.161,-2.104 0.341,-3.144 0.132,-0.789 0.345,-1.563 0.636,-2.309 0.263,-0.643 0.615,-1.246 1.046,-1.792 0.62,-0.81 1.409,-1.477 2.312,-1.953 1.128,-0.55 2.374,-0.812 3.627,-0.764 1.182,-0.05 2.354,0.231 3.385,0.812 0.888,0.565 1.595,1.375 2.036,2.331 0.548,1.208 0.907,2.493 1.064,3.811 0.219,1.708 0.323,3.43 0.312,5.152 0,2.176 -0.063,4.171 -0.189,5.941 -0.076,1.518 -0.385,3.015 -0.914,4.44 -0.406,1.091 -1.139,2.031 -2.099,2.691 -1.163,0.679 -2.499,1.002 -3.844,0.931 -1.407,0.069 -2.802,-0.298 -3.992,-1.052 -1.003,-0.707 -1.81,-1.657 -2.346,-2.761 -0.587,-1.221 -0.978,-2.527 -1.158,-3.869 -0.204,-1.401 -0.308,-2.816 -0.312,-4.232 0,-1.624 0.032,-3.051 0.095,-4.243 m 65.966,23.454 c -0.788,-0.598 -1.432,-1.365 -1.886,-2.244 -0.837,-1.934 -0.962,-4.104 -0.353,-6.122 0.233,-0.649 0.57,-1.256 0.999,-1.797 0.397,-0.488 0.873,-0.907 1.407,-1.24 0.528,-0.332 1.048,-0.654 1.557,-0.967 h 6.688 c 1.77,-0.101 3.524,0.387 4.988,1.388 1.278,1.189 1.925,2.913 1.743,4.649 -0.001,1.024 -0.233,2.034 -0.679,2.955 -0.473,0.971 -1.143,1.834 -1.968,2.532 -0.914,0.77 -1.957,1.372 -3.081,1.779 -1.275,0.457 -2.621,0.682 -3.975,0.665 -0.963,-0.005 -1.922,-0.129 -2.855,-0.367 -0.933,-0.228 -1.81,-0.639 -2.583,-1.209"
       fill="#373938"
       id="path4"
       inkscape:highlight-color="#ffffff"
       inkscape:label="path4"
       style="fill:#bdbdbd;fill-opacity:1" />
    <path
       d="m42.355.001c-2.981 0-5.443 2.435-5.474 5.416-2.116.147-3.778 1.929-3.778 4.05 0 2.227 1.833 4.06 4.06 4.06 1.079 0 2.114-.43 2.876-1.194.716 1.263 2.06 2.046 3.512 2.046 1.358 0 2.628-.685 3.374-1.819 1.625.782 3.601.205 4.551-1.328.548.283 1.156.43 1.772.43 2.123 0 3.869-1.746 3.869-3.868 0-2.123-1.746-3.869-3.869-3.869-.509 0-1.012.1-1.482.295-.856-1.861-3.062-2.723-4.952-1.934-1.029-1.437-2.692-2.289-4.459-2.285z"
       fill="url(#a)"
       id="path5" />
  </g>
</svg>
