<svg clip-rule="evenodd" fill-rule="evenodd" stroke-linejoin="round" stroke-miterlimit="2" viewBox="0 0 120 63" xmlns="http://www.w3.org/2000/svg" xmlns:xlink="http://www.w3.org/1999/xlink"><linearGradient id="a" gradientTransform="matrix(23.2658 .00240209 -.00240209 23.2658 33.8512 -.001409)" gradientUnits="userSpaceOnUse" x1="0" x2="1" y1="0" y2="0"><stop offset="0" stop-color="#ff8204"/><stop offset="1" stop-color="#fddb32"/></linearGradient><path d="m0 0h120v63h-120z" fill="none"/><g fill-rule="nonzero"><path d="m118.126 14.932h.003c1.026 0 1.871.845 1.871 1.871 0 1.027-.845 1.872-1.871 1.872s-1.871-.844-1.872-1.869c0-.002 0-.004 0-.005 0-1.025.844-1.869 1.869-1.869zm0 3.433h.005c.858 0 1.564-.706 1.564-1.564s-.706-1.565-1.564-1.565-1.564.707-1.564 1.565v.005c.001.855.704 1.558 1.559 1.559m-.077-1.339h-.298v.807h-.418v-2.06h.798c.546 0 .788.242.788.607.015.279-.171.533-.442.602l.483.849h-.483zm-.298-.861v.484h.38c.278 0 .365-.092.365-.242s-.082-.242-.365-.242z" fill="#373938"/><path d="m113.3 16.47c-.793-.393-1.667-.594-2.551-.588-1.31-.042-2.599.346-3.668 1.105-.715.519-1.344 1.147-1.864 1.862-.834-.675-1.731-1.268-2.679-1.77-1.58-.834-3.346-1.25-5.131-1.209-1.349.013-2.688.233-3.97.653-1.359.428-2.636 1.082-3.777 1.934-1.141.855-2.105 1.923-2.841 3.143-.53.915-.892 1.918-1.069 2.96-.098.551-.279 1.084-.537 1.581-.362.822-.857 1.578-1.465 2.239-.757.805-1.672 1.444-2.689 1.877-1.391.565-2.886.83-4.386.778-1.381.063-2.751-.273-3.946-.967-1.011-.66-1.828-1.578-2.365-2.66-.621-1.277-1.03-2.648-1.209-4.057-.235-1.674-.35-3.363-.343-5.053-.072-2.509.187-5.016.771-7.457.344-1.453 1-2.814 1.922-3.988.638-.775 1.502-1.331 2.471-1.591.908-.217 1.836-.33 2.769-.336 1.086-.024 2.16.226 3.124.726.729.313 1.205 1.032 1.209 1.825-.034.663-.175 1.316-.416 1.935-.282.738-.44 1.517-.469 2.306-.042.87.454 1.682 1.248 2.041.705.344 1.479.523 2.263.522 1.019.06 2.02-.299 2.771-.991.661-.667 1.02-1.578.991-2.517.036-1.283-.34-2.544-1.071-3.598-.693-.96-1.585-1.761-2.614-2.348-1.068-.605-2.22-1.048-3.419-1.315-3.169-.762-6.499-.508-9.517.725-1.802.732-3.445 1.808-4.836 3.168-1.379 1.365-2.486 2.981-3.261 4.761-.445 1.019-.769 2.087-.968 3.182-.02.134-.089.257-.193.345-.213.142-.49.15-.711.02-.063-.034-.138-.075-.242-.121-.35-.152-.742-.305-1.172-.455-.431-.15-.943-.302-1.524-.454-.774-.177-1.568-.258-2.362-.242-1.297-.011-2.586.214-3.803.662-2.24.817-4.057 2.503-5.039 4.674-.497 1.095-.75 2.285-.74 3.487-.041 1.235.178 2.465.643 3.61.387.886.954 1.683 1.666 2.338.643.586 1.378 1.063 2.176 1.412.745.319 1.451.59 2.087.803l4.932 1.707c.989.333 1.914.831 2.737 1.473.791.79 1.179 1.899 1.055 3.01.133 1.364-.385 2.715-1.398 3.639-.939.749-2.109 1.149-3.31 1.132-1.342.037-2.676-.228-3.903-.774-1.032-.486-1.959-1.168-2.73-2.01-.733-.807-1.336-1.725-1.784-2.72-.441-.974-.813-1.979-1.115-3.005l-.099-.344h-.024c-.077-.217-.158-.433-.242-.648-1.399-3.443-4.028-6.248-7.375-7.865-1.657-.803-3.477-1.217-5.319-1.209-2.123-.093-4.216.546-5.924 1.811-.953.747-1.763 1.662-2.389 2.698v-26.113h-11.277v1.837h4.867s.046 41.729 0 42.556c-.224 1.062-.737 2.042-1.482 2.831-.784.958-1.972 1.495-3.209 1.451-.394-.003-.786-.061-1.165-.172-.393-.124-.744-.352-1.018-.66-.38-.441-.655-.961-.808-1.523-.242-.891-.352-1.812-.326-2.735v-24.167h5.012v-1.835h-5.012v-7.075h-6.391v7.072h-4.867v1.838h4.867v23.597c-.118 2.038.609 4.037 2.01 5.522 1.972 1.528 4.461 2.234 6.942 1.971 1.155.034 2.305-.187 3.365-.648.786-.363 1.494-.874 2.085-1.506v2.152h6.262v-3.893c.397.804.922 1.539 1.555 2.176.753.758 1.633 1.379 2.599 1.835 1.206.547 2.521.812 3.845.776 1.899.004 3.775-.423 5.486-1.247 1.705-.819 3.243-1.948 4.536-3.33 1.308-1.399 2.356-3.021 3.095-4.788.174-.413.411-1.138.462-1.259.058-.147.155-.276.28-.373.14-.099.278-.137.726-.137.465.01.925.098 1.361.258.551.192 1.156.394 1.813.605.668.215 1.403.42 2.177.609.876.205 1.774.305 2.674.297 1.519.025 3.029-.244 4.446-.793 1.224-.482 2.347-1.19 3.311-2.086.902-.854 1.609-1.893 2.074-3.044.458-1.12.696-2.318.699-3.528.071-1.891-.675-3.724-2.048-5.027-1.459-1.307-3.178-2.29-5.044-2.885l-4.621-1.518c-1.443-.405-2.815-1.032-4.067-1.857-.837-.628-1.3-1.64-1.228-2.684-.052-1.265.506-2.481 1.499-3.267 1.283-.909 2.841-1.352 4.411-1.252.875-.021 1.744.158 2.541.522.701.34 1.315.836 1.794 1.451.522.679.958 1.421 1.298 2.207.365.831.688 1.679.968 2.542.196.698.457 1.377.778 2.028.857 1.773 2.101 3.331 3.642 4.558 1.459 1.142 3.122 1.996 4.901 2.517 1.664.502 3.39.764 5.128.779 1.843.066 3.676-.287 5.363-1.03 1.242-.58 2.364-1.389 3.305-2.384.281-.313.544-.641.789-.982.505 1.623 1.496 3.052 2.838 4.094-.367.183-.761.389-1.18.619-.76.42-1.456.948-2.067 1.566-.661.666-1.213 1.431-1.637 2.268-.476.983-.711 2.066-.684 3.158-.183 1.945.65 3.851 2.2 5.039 1.399.84 2.988 1.312 4.618 1.371-.361.177-.72.369-1.078.576-.904.513-1.735 1.145-2.471 1.878-.736.738-1.344 1.592-1.799 2.53-.48 1.001-.723 2.1-.711 3.211-.011 1.179.309 2.339.924 3.346.635 1.011 1.489 1.866 2.497 2.505 1.147.719 2.396 1.261 3.705 1.608 1.516.403 3.079.6 4.647.585 1.863-.001 3.713-.32 5.469-.943 1.726-.6 3.329-1.507 4.732-2.677 1.357-1.137 2.481-2.527 3.308-4.093.846-1.631 1.278-3.444 1.257-5.281.214-2.654-.823-5.26-2.802-7.041-2.118-1.568-4.716-2.355-7.348-2.225h-9.981c-.504.002-1.007-.037-1.504-.118-.422-.066-.83-.2-1.209-.394-.332-.177-.607-.445-.793-.771-.223-.409-.331-.87-.312-1.335-.01-.547.121-1.088.382-1.569.258-.466.597-.883 1.001-1.231.41-.351.864-.647 1.351-.88.448-.215.871-.414 1.275-.597.587.28 1.385.604 2.372.967 1.293.442 2.654.655 4.021.628 1.477 0 2.946-.231 4.352-.686 1.353-.423 2.622-1.077 3.75-1.935 1.045-.8 1.932-1.788 2.614-2.913.675-1.124 1.026-2.413 1.016-3.724.045-1.405-.283-2.797-.951-4.033-.376-.667-.795-1.309-1.255-1.922.258-.312.545-.597.859-.851.273-.253.624-.406.996-.433.22-.019.433.091.544.283.203.328.399.674.58 1.035.201.403.438.787.709 1.148.401.486 1.016.746 1.644.696.652-.014 1.28-.25 1.78-.669.619-.508.957-1.283.909-2.082.14-1.096-.388-2.174-1.34-2.735m-20.7 14.938c-.489-.738-.818-1.569-.967-2.442-.193-1.098-.285-2.212-.276-3.327-.193-2.162.348-4.326 1.533-6.144 1.142-1.262 2.808-1.925 4.505-1.792 1.067-.054 2.129.185 3.071.689.713.426 1.288 1.05 1.656 1.794.387.811.64 1.679.747 2.571.123.955.185 1.917.186 2.88.145 2.07-.309 4.14-1.308 5.96-1.005 1.321-2.633 2.023-4.284 1.847-1.036.037-2.068-.143-3.03-.527-.739-.321-1.372-.845-1.826-1.511m-66.865 4.188c.047-1.054.161-2.104.341-3.144.132-.789.345-1.563.636-2.309.263-.643.615-1.246 1.046-1.792.62-.81 1.409-1.477 2.312-1.953 1.128-.55 2.374-.812 3.627-.764 1.182-.05 2.354.231 3.385.812.888.565 1.595 1.375 2.036 2.331.548 1.208.907 2.493 1.064 3.811.219 1.708.323 3.43.312 5.152 0 2.176-.063 4.171-.189 5.941-.076 1.518-.385 3.015-.914 4.44-.406 1.091-1.139 2.031-2.099 2.691-1.163.679-2.499 1.002-3.844.931-1.407.069-2.802-.298-3.992-1.052-1.003-.707-1.81-1.657-2.346-2.761-.587-1.221-.978-2.527-1.158-3.869-.204-1.401-.308-2.816-.312-4.232 0-1.624.032-3.051.095-4.243m65.966 23.454c-.788-.598-1.432-1.365-1.886-2.244-.837-1.934-.962-4.104-.353-6.122.233-.649.57-1.256.999-1.797.397-.488.873-.907 1.407-1.24.528-.332 1.048-.654 1.557-.967h6.688c1.77-.101 3.524.387 4.988 1.388 1.278 1.189 1.925 2.913 1.743 4.649-.001 1.024-.233 2.034-.679 2.955-.473.971-1.143 1.834-1.968 2.532-.914.77-1.957 1.372-3.081 1.779-1.275.457-2.621.682-3.975.665-.963-.005-1.922-.129-2.855-.367-.933-.228-1.81-.639-2.583-1.209" fill="#373938"/><path d="m42.355.001c-2.981 0-5.443 2.435-5.474 5.416-2.116.147-3.778 1.929-3.778 4.05 0 2.227 1.833 4.06 4.06 4.06 1.079 0 2.114-.43 2.876-1.194.716 1.263 2.06 2.046 3.512 2.046 1.358 0 2.628-.685 3.374-1.819 1.625.782 3.601.205 4.551-1.328.548.283 1.156.43 1.772.43 2.123 0 3.869-1.746 3.869-3.868 0-2.123-1.746-3.869-3.869-3.869-.509 0-1.012.1-1.482.295-.856-1.861-3.062-2.723-4.952-1.934-1.029-1.437-2.692-2.289-4.459-2.285z" fill="url(#a)"/></g></svg>